<?xml version="1.0" encoding="UTF-8" standalone="no"?>
<svg width="96px" height="62px" viewBox="0 0 96 62" version="1.1" xmlns="http://www.w3.org/2000/svg" xmlns:xlink="http://www.w3.org/1999/xlink">
    <g id="Page-1" stroke="none" stroke-width="1" fill="none" fill-rule="evenodd">
        <g id="AlgoPublishingModal_V3_Published-Copy-3" transform="translate(-672.000000, -390.000000)">
            <g id="publish_purple" transform="translate(672.000000, 390.000000)">
                <path d="M78.4285714,25.8385417 C80.2165994,27.9272666 87.4285543,27.5824478 90.8571429,31.0703125 C94.2857314,34.5581772 96,38.722198 96,43.5625 C96,48.5451638 94.2857314,52.7803645 90.8571429,56.2682292 C87.4285543,59.7560938 83.2857386,61.5 78.4285714,61.5 C63.1494533,61.9485456 55.2923104,61.9485456 54.8571429,61.5 C54.2043916,60.8271817 54.1513423,45.2708333 54.8571429,44.4166667 C55.5629434,43.5625 64.6938122,45.1132663 65.1428571,44.4166667 C65.5919021,43.720067 49.5192159,26.4791667 48,26.4791667 C46.4807841,26.4791667 30.0682503,43.5180173 30.8571429,44.4166667 C31.6460354,45.315316 40.3928571,43.5625 41.1428571,44.4166667 C41.8928571,45.2708333 41.6844703,60.8173638 41.1428571,61.5 C40.7817817,61.9550908 33.4960674,61.9550908 19.2857143,61.5 C13.9999736,61.5 9.46430464,59.5781442 5.67857143,55.734375 C1.89283821,51.8906058 0,47.3350958 0,42.0677083 C0,37.7968536 1.21427357,33.988732 3.64285714,30.6432292 C6.07144071,27.2977263 9.21426643,24.9843814 13.0714286,23.703125 C16.9285907,22.4218686 15.1071311,17.9731006 17.4642857,15.9088542 C19.8214404,13.8446077 22.5714129,12.8125 25.7142857,12.8125 C27.42858,12.8125 29.2857043,13.3107589 31.2857143,14.3072917 C33.2857243,15.3038244 36.3214082,6.58421456 40.3928571,3.95052083 C44.4643061,1.31682711 48.9285471,0 53.7857143,0 C60.6428914,0 66.4642618,2.45570461 71.25,7.3671875 C76.0357382,12.2786704 76.6405435,23.7498167 78.4285714,25.8385417 Z" id="cloud" fill="#675CC5"></path>
                <path d="M25.7142857,12.8125 C27.42858,12.8125 29.2857043,13.3107589 31.2857143,14.3072917 C31.4624403,14.3953478 31.6472527,14.407541 31.8401517,14.3547733 C30.2602234,14.9381628 28.7282882,14.9223356 27.2443461,14.3072917 C25.7604039,13.6922477 24.647554,13.2338937 23.9057961,12.9322297 C24.4934336,12.8524098 25.0962633,12.8125 25.7142857,12.8125 Z" id="shadow" fill="#443D83"></path>
                <path d="M48,26.4791667 C46.4807841,26.4791667 30.0682503,43.5180173 30.8571429,44.4166667 C31.6460354,45.315316 40.3928571,43.5625 41.1428571,44.4166667 C41.8928571,45.2708333 41.6844703,60.8173638 41.1428571,61.5 C40.7817817,61.9550908 33.4960674,61.9550908 19.2857143,61.5 C15.1102022,61.5 11.40276,60.300698 8.16332042,57.9020655 C10.2601211,58.4353908 12.9043234,59.0226699 16.0959272,59.6639028 C20.883333,60.6257522 38.0751604,61.3105455 39.4590748,59.6639028 C40.8429892,58.0172601 40.2513925,46.9560865 39.4590748,45.9787669 C38.6667571,45.0014472 29.7687156,47.097754 28.9237359,45.0811178 C28.0787561,43.0644815 42.9640925,28.8820007 45.3262031,27.3201569 C47.6883138,25.7583132 48.1735602,26.4791667 48,26.4791667 Z" id="shadow" fill="#443D83"></path>
                <path d="M54.8571429,61.5 C55.2923104,61.9485456 63.1494533,61.9485456 78.4285714,61.5 C83.2857386,61.5 87.4285543,59.7560938 90.8571429,56.2682292 C94.2857314,52.7803645 96,48.5451638 96,43.5625 C96,38.722198 94.2857314,34.5581772 90.8571429,31.0703125 C87.4285543,27.5824478 80.2165994,27.9272666 78.4285714,25.8385417 C76.6405435,23.7498167 76.0357382,12.2786704 71.25,7.3671875 C68.1256835,4.16077999 64.5599819,2.00102209 60.5528466,0.887893307 C64.7964089,2.14910306 68.222473,5.00756474 70.8310389,9.46327833 C74.7438878,16.1468487 72.2905256,22.8042688 76.1827744,27.2334457 C80.0750232,31.6626225 86.5149075,28.6183473 90.1275623,31.9354011 C93.7402171,35.2524549 94.3242302,39.8265652 94.2385024,43.6057681 C94.1527746,47.384971 94.8501169,50.457459 88.1265466,55.1997255 C81.4029764,59.9419921 78.4285714,58.6173683 70.8310389,59.425397 C65.7660173,59.9640829 60.3232476,59.8274481 54.5027298,59.0154928 C54.5875536,60.3948069 54.7063453,61.3445666 54.8571429,61.5 Z" id="shadow" fill="#443D83"></path>
            </g>
        </g>
    </g>
</svg>